<svg width="1520" height="2159" viewBox="0 0 1520 2159" fill="none" xmlns="http://www.w3.org/2000/svg">
<path opacity="0.3" d="M0 2095.63H573.129M1520 2095.63H1210.01M713.393 1674.67L856.5 1955.74M713.393 1674.67H999.248M713.393 1674.67L642.551 1535.76L785.478 1256.53L927.508 1534.34M959.477 2158L856.5 1955.74M115.585 2158L183.75 2026.18M201.341 1992.16L183.941 1957.99M201.341 1992.16L183.75 2026.18M201.341 1992.16L285.854 2158M201.341 1992.16L217.621 1953.89M0 2036.1L111.856 1816.41L183.941 1957.99M82.0278 2158L183.941 1957.99M0 2026.18H183.75M222.469 2158L395.225 1814.99M395.225 1814.99H146.656L217.621 1953.89M395.225 1814.99H430.025M321.897 2158L217.621 1953.89M217.621 1953.89H502.11M502.11 1953.89L430.025 1814.99M502.11 1953.89L400.196 2158M502.11 1953.89L573.129 2095.63M430.025 1814.99L257.269 2158M604.023 2157.29L573.129 2095.63M538.152 1953.89L434.996 2158M538.152 1953.89L608.994 2095.63M538.152 1953.89H820.278M573.129 2095.63L540.638 2158M573.129 2095.63H608.994M608.994 2095.63L576.68 2158M608.994 2095.63L640.065 2158M608.994 2095.63H891.12M820.278 1953.89L719.607 2158M820.278 1953.89L953.9 1691.68M1520 1691.68H1378.94M754.407 2158L856.5 1955.74M971.905 1727.11L953.9 1691.68M971.905 1727.11L857.432 1953.89M971.905 1727.11L1095.34 1971.61M953.9 1691.68L1096.19 1412.45H953.36M953.9 1691.68H1237.25M953.9 1691.68H811.578M1113.59 2007.76H971.356M1113.59 2007.76H1520L1493.84 1956.02M1113.59 2007.76L1140.93 1953.89M1113.59 2007.76L1095.34 1971.61M688.573 2007.76L546.852 1727.11H830.221M688.573 2007.76L830.221 1727.11M688.573 2007.76H971.356M830.221 1727.11L953.262 1970.9M830.221 1727.11L811.578 1691.68M830.221 1727.11L927.508 1534.34M953.262 1970.9L1236.63 1412.45L1378.94 1691.68M953.262 1970.9L891.12 2095.63M860.049 2158L891.12 2095.63M1378.94 1691.68L1236.63 1969.49M1378.94 1691.68H1237.25M1236.63 1969.49L1112.66 1725.69M1236.63 1969.49L1331.71 2158M934.62 1375.6H794.178M934.62 1375.6L953.36 1412.45M934.62 1375.6L794.178 1653.41L652.494 1375.6M934.62 1096.37L794.178 1375.6M934.62 1096.37H792.935M934.62 1096.37L917.22 1062.35M794.178 1375.6L775.536 1341.58M794.178 1375.6H652.494M896.092 2158L971.356 2007.76M1112.66 1725.69L971.356 2007.76M1112.66 1725.69L953.36 1412.45M856.5 1955.74L857.432 1953.89M857.432 1953.89H1140.93M1140.93 1953.89L1254.03 1728.53L1414.13 2042.87M1472.77 2158L1414.13 2042.87M891.12 2095.63L923.434 2158M891.12 2095.63H1210.01M971.356 2007.76L988.927 2041.77M1048.96 2158L988.927 2041.77M988.927 2041.77L928.406 2158M1520 1674.67H1351.59L1422.54 1814.99M1095.34 1971.61L1237.25 1691.68M1384.6 1814.28L1317.42 1674.67H1033.61M1384.6 1814.28H1353.46M1384.6 1814.28L1386.31 1817.82M1104.89 1814.28L1246.57 1535.76L1175.73 1396.15M1104.89 1814.28L1033.61 1674.67M1104.89 1814.28H1353.46M961.962 1534.34L1104.89 1256.53L1175.73 1396.15M961.962 1534.34L1033.61 1674.67M961.962 1534.34L820.278 1256.53M1175.73 1396.15L1033.61 1674.67M1033.61 1674.67H999.248M1178.22 2158L1210.01 2095.63M1353.46 1814.28L1210.01 2095.63M1386.31 1817.82L1213.02 2158M1386.31 1817.82L1457.24 1953.89M1210.01 2095.63L1242.85 2158M1279.51 2158L1174.49 1953.89H1457.24M1457.24 1953.89L1520 2076.5M1422.54 1814.99H1520M1422.54 1814.99L1493.84 1956.02M1319.9 2158L1520 1763.96M1355.94 2158L1414.13 2042.87M1520 1833.42L1414.13 2042.87M1414.13 2042.87H1520L1460.34 2158M1497.63 2158L1520 2114.77M1393.85 2158L1493.84 1956.02M1493.84 1956.02H1520M999.248 1674.67L927.508 1534.34M811.578 1691.68H528.209L386.525 1412.45H953.36M811.578 1691.68L953.36 1412.45M820.278 1256.53L775.536 1341.58M820.278 1256.53L917.22 1062.35M775.536 1341.58L474.581 747.688M652.494 1375.6L792.935 1096.37M652.494 1375.6H510.809M792.935 1096.37H509.567L367.882 1375.6H510.809M917.22 1062.35L776.778 781.705M776.778 781.705L492.788 1340.14M776.778 781.705H633.65M0 781.705H67.7351M510.809 1375.6L492.788 1340.14M49.7138 468.46H0M49.7138 468.46H123.903M49.7138 468.46L332.855 1025.5M403.925 747.688L262.24 468.46H189.534M403.925 747.688H334.325M403.925 747.688H474.581M0 747.688H50.3352M616.451 747.688L474.767 1024.08L351.611 781.705M616.451 747.688L633.65 781.705M616.451 747.688H474.581M334.325 747.688L351.611 781.705M334.325 747.688H264.726M268.455 3.55298L526.507 512.399M988.062 866.749L846.378 1143.14L686.275 827.44M988.062 866.749L846.378 586.104M988.062 866.749H1130.99L986.819 586.104M988.062 866.749H845.04M846.378 586.104H986.819M846.378 586.104L563.009 1141.72L505.838 1031.17M846.378 586.104H703.442M986.819 586.104L845.04 866.749M136.713 866.749L333.083 468.46L474.581 747.688M136.713 866.749L0 593.191M136.713 866.749H279.329M0 586.104H421.226M505.838 1031.17L492.167 1062.35L635.094 1338.74L775.536 1062.35M505.838 1031.17L421.946 866.749M505.838 1031.17L633.65 781.705M775.536 1062.35H351.587M775.536 1062.35L633.65 781.705M367.882 621.539L261.17 830.605M367.882 621.539L510.91 902.184M367.882 621.539L626.485 111.275M681.079 3.55298L626.485 111.275M367.882 902.184L510.809 625.791M367.882 902.184L651.251 901.242M367.882 902.184L510.809 1182.83L651.251 901.242M510.809 625.791L651.251 901.242M510.809 625.791L687.294 271.441M651.251 901.242L794.178 900.767L652.494 1179.99L510.91 902.184M421.946 866.749L563.885 586.104M421.946 866.749H279.329M421.946 866.749H563.679M563.885 586.104L686.275 827.44M563.885 586.104H421.226M563.885 586.104H703.442M563.885 586.104L526.507 512.399M351.587 1062.35L492.788 1340.14M351.587 1062.35H209.351M351.587 1062.35L492.63 781.705M351.587 1062.35L332.855 1025.5M0 929.115L67.1137 1062.35H209.351M125.527 3.55298L225.576 200.658M845.04 866.749L704.693 1144.56L563.679 866.749M845.04 866.749H563.679M845.04 866.749L703.442 586.104M409.518 3.55298L685.563 550.669M686.275 827.44L828.978 550.669L687.294 271.441M687.294 271.441H403.925M687.294 271.441H828.356M120.556 271.441L243.598 512.399L500.867 3.55298L555.502 112.693M120.556 271.441H261.505M120.556 271.441L102.535 236.006M409.518 393.338H695.993L555.502 112.693M409.518 393.338L555.502 112.693M409.518 393.338L339.272 253.015M555.502 112.693H306.983M555.502 112.693L589.69 112.565M306.983 112.693L361.668 3.55298M306.983 112.693L123.903 468.46M101.292 512.399L0 313.963M101.292 512.399L123.903 468.46M101.292 512.399L120.52 550.669M279.329 866.749L421.226 586.104M279.329 866.749L261.17 830.605M421.226 586.104L563.679 866.749M421.226 586.104L385.253 515.234M351.611 781.705L209.351 1062.35M351.611 781.705H67.7351M351.611 781.705H492.63M209.351 1062.35L67.7351 781.705M50.3352 747.688L0 647.052M50.3352 747.688L189.534 468.46M50.3352 747.688H264.726M189.534 468.46H123.903M123.903 468.46L264.726 747.688M261.17 830.605L120.52 550.669M405.789 832.732L262.24 550.669L403.925 271.441M403.925 271.441H261.505M120.52 550.669H685.563M120.52 550.669L261.505 271.441M633.65 781.705H492.63M332.855 1025.5L474.581 747.688M510.91 902.184L685.563 550.669M685.563 550.669L703.442 586.104M685.563 550.669H969.419M685.563 550.669L828.356 271.441M563.679 866.749L703.442 586.104M703.442 586.104L846.378 306.876M846.378 306.876L828.356 271.441M846.378 306.876L969.419 550.669M828.356 271.441H1111.1M969.419 550.669H1111.1L1251.55 271.441H1111.1M969.419 550.669L1049.97 391.92M1111.1 271.441L1049.97 391.92M1049.97 391.92H1332.95L1262.72 253.015M1049.97 391.92L979.376 253.015M1136.58 3.55298L1262.72 253.015M852.592 3.55298L907.339 111.275M732.036 393.338H1014.78L871.856 111.275M732.036 393.338L589.69 112.565M732.036 393.338L811.578 236.006M534.424 3.55298L589.69 112.565M871.856 111.275H907.339M871.856 111.275H626.485M907.339 111.275L979.376 253.015M907.339 111.275L965.691 3.55298M692.265 3.55298L811.578 236.006M811.578 236.006L927.163 3.55298M811.578 236.006H951.398L1067.6 3.55298M811.578 236.006H667.849M0 236.006H102.535M0 253.015H22.5242M1262.72 253.015H979.376M526.507 512.399L667.849 236.006M786.721 3.55298L667.849 236.006M667.849 236.006L552.445 3.55298M667.849 236.006H102.535M645.037 3.55298L589.69 112.565M385.253 515.234L589.69 112.565M385.253 515.234L261.505 271.441M467.931 3.55298L339.272 253.015M339.272 253.015H22.5242M339.272 253.015L269.002 112.644M339.272 253.015H979.376M94.4563 393.338H377.204L234.898 112.644M94.4563 393.338L22.5242 253.015M94.4563 393.338L234.898 112.644M0 209.076L22.5242 253.015M22.5242 253.015L148.52 3.55298M234.898 112.644L179.591 3.55298L84.5135 197.737L0 31.9009M234.898 112.644H0M234.898 112.644H269.002M269.002 112.644L214.391 3.55298L102.535 236.006M269.002 112.644L225.576 200.658M269.002 112.644L325.625 3.55298M225.576 200.658L261.505 271.441M979.376 253.015L1104.89 3.55298M1369.62 391.92H1520M1369.62 391.92L1512.54 114.11M1369.62 391.92L1298.94 253.015M1172 3.55298L1226.82 111.275M1512.54 114.11L1455.99 3.55298M1512.54 114.11L1520 132.536M1298.94 253.015H1520M1298.94 253.015L1425.54 3.55298M1298.94 253.015L1226.82 111.275M1226.82 111.275L1282.62 3.55298M1226.82 111.275H945.805L1000.49 3.55298M0 156.632L78.2993 3.55298M0 88.5969L43.4996 3.55298M0 20.5618L8.69992 3.55298M1520 60.249L1511.42 43.2402M1491.41 3.55298L1511.42 43.2402M1511.42 43.2402H1520M1511.42 43.2402L1520 24.814" stroke="url(#paint0_linear_497_1524)" stroke-opacity="0.6" stroke-width="3"/>
<defs>
<linearGradient id="paint0_linear_497_1524" x1="760.502" y1="3.55286" x2="760.502" y2="2158" gradientUnits="userSpaceOnUse">
<stop offset="0.276127" stop-color="#16AF8B"/>
<stop offset="1"/>
</linearGradient>
</defs>
</svg>
