<svg width="50" height="57" viewBox="0 0 50 57" fill="none" xmlns="http://www.w3.org/2000/svg">
<path d="M35.6467 32.1283H14.2187C9.70756 32.1283 6.13623 28.5375 6.13623 24.0017V15.6862C6.13623 11.1504 9.70756 7.55957 14.2187 7.55957H35.8347C40.1579 7.55957 43.7292 11.1504 43.7292 15.6862V24.1907C43.7292 28.5375 40.1579 32.1283 35.6467 32.1283ZM14.2187 11.3394C11.7752 11.3394 9.89553 13.2293 9.89553 15.6862V24.1907C9.89553 26.4586 11.7752 28.3485 14.2187 28.3485H35.8347C38.2782 28.3485 40.1579 26.4586 40.1579 24.0017V15.6862C39.9699 13.2293 38.0902 11.3394 35.6467 11.3394H14.2187Z" fill="white"/>
<path d="M30.5716 18.8989H19.2937C18.1659 18.8989 17.4141 18.143 17.4141 17.009C17.4141 15.8751 18.1659 15.1191 19.2937 15.1191H30.5716C31.6994 15.1191 32.4512 15.8751 32.4512 17.009C32.4512 18.143 31.6994 18.8989 30.5716 18.8989Z" fill="white"/>
<path d="M12.5259 11.5284H37.5252C38.0891 11.5284 38.8409 11.1504 39.0289 10.5835C39.4048 10.0165 39.4048 9.44952 39.2169 8.69355C36.3974 3.02384 31.6983 0 24.9316 0C18.1648 0 13.4657 3.02384 10.8342 8.88254C10.4583 9.44952 10.4583 10.2055 10.8342 10.7724C11.2101 11.3394 11.774 11.5284 12.5259 11.5284Z" fill="white"/>
<path d="M17.4144 36.4752V39.3101C15.7227 39.6881 14.0311 40.255 12.5273 40.822C15.5348 42.7119 20.0459 43.8458 24.933 43.8458C29.8201 43.8458 34.3313 42.7119 37.3387 40.822C35.835 40.255 34.1433 39.6881 32.4516 39.3101V36.4752C34.1433 35.1523 35.647 33.2624 36.9628 31.1835C37.3387 30.6165 37.3387 29.8606 36.9628 29.2936C36.5868 28.7266 36.0229 28.3486 35.2711 28.3486H14.595C13.8431 28.3486 13.2792 28.7266 12.9033 29.2936C12.5273 29.8606 12.5273 30.6165 12.9033 31.1835C14.407 33.2624 15.7227 35.1523 17.4144 36.4752Z" fill="white"/>
<path d="M41.0975 42.9009C37.5261 45.9247 31.6992 47.8146 24.9325 47.8146C18.3537 47.8146 12.5268 45.9247 8.76752 42.9009C4.0684 45.9247 1.06096 50.0825 0.49707 54.6183C0.49707 55.1852 0.685035 55.7522 0.873 56.1302C1.06096 56.5082 2.00079 56.6972 2.37672 56.6972H47.4883C48.0522 56.6972 48.6161 56.5082 48.804 56.1302C48.992 55.7522 49.3679 55.1852 49.18 54.6183C48.804 49.8935 45.6086 45.7357 41.0975 42.9009Z" fill="white"/>
</svg>
