<svg width="67" height="57" viewBox="0 0 67 57" fill="none" xmlns="http://www.w3.org/2000/svg">
<path fill-rule="evenodd" clip-rule="evenodd" d="M7.55495 20.531C11.1453 9.76134 21.2989 1.99825 33.263 1.99825C45.1836 1.99825 55.3068 9.70498 58.9316 20.4137H55.8867V24.147H59.9037C60.0849 25.1251 60.2137 26.1216 60.287 27.1336H55.8867V30.8669H63.345V27.1336H61.2896C61.219 26.1224 61.0949 25.1259 60.9203 24.147H66.577V20.4137H59.9854C56.3221 9.14397 45.7431 0.998245 33.263 0.998245C20.7729 0.998245 10.1869 9.15702 6.53177 20.4407C6.46774 20.4393 6.40333 20.4385 6.33852 20.4385C5.25292 20.4385 4.32476 20.6377 3.55407 21.0359C2.78337 21.4341 2.19913 21.9899 1.80135 22.7034C1.41186 23.4086 1.21712 24.2216 1.21712 25.1425C1.21712 26.0883 1.41186 26.8972 1.80135 27.5691C2.19913 28.2328 2.66735 28.7721 3.20601 29.1869C3.6981 29.5583 4.3631 30.0024 5.201 30.5191C5.28703 32.2829 5.53534 34.0039 5.9313 35.6676C5.88528 35.6695 5.83871 35.6704 5.79157 35.6704C5.29435 35.6704 4.79298 35.5709 4.28747 35.3717C3.79025 35.1726 3.34689 34.932 2.9574 34.65C2.56791 34.3679 2.27786 34.1024 2.08726 33.8535L0.819336 36.4669C1.11767 36.7821 1.52374 37.0849 2.03753 37.3753C2.55133 37.6657 3.148 37.9021 3.82754 38.0846C4.51537 38.2671 5.24463 38.3584 6.01533 38.3584C6.25267 38.3584 6.48319 38.3494 6.70688 38.3314C8.9307 44.7606 13.4184 50.1313 19.2145 53.4879L19.7156 52.6225C14.1771 49.4151 9.87836 44.3022 7.71335 38.1796C8.12444 38.0855 8.5073 37.9543 8.86193 37.7859C9.66578 37.396 10.2832 36.836 10.7141 36.106C11.145 35.3759 11.3605 34.5089 11.3605 33.5051C11.3605 32.5593 11.1699 31.7629 10.7887 31.1158C10.4158 30.4604 9.95168 29.9211 9.39645 29.498C8.84121 29.0749 8.03737 28.5523 6.98491 27.93C6.7015 27.7598 6.44577 27.6005 6.21774 27.452C6.30808 25.9653 6.51802 24.511 6.83805 23.0985C7.14195 23.1343 7.43538 23.2142 7.71832 23.3381C8.1161 23.504 8.45586 23.7073 8.73763 23.9478C9.01939 24.1801 9.23071 24.3958 9.37159 24.595L10.7638 22.0563C9.86212 21.2357 8.79249 20.7273 7.55495 20.531ZM5.80088 23.1564C5.46966 23.2441 5.19309 23.4042 4.97115 23.6367C4.6231 24.0018 4.44907 24.4622 4.44907 25.0181C4.44907 25.4412 4.55266 25.8186 4.75983 26.1505C4.90166 26.3635 5.07042 26.5621 5.26611 26.7463C5.36819 25.5259 5.54811 24.3276 5.80088 23.1564ZM6.2427 31.1668C6.35158 32.6315 6.57664 34.0638 6.90869 35.4545C7.0976 35.3719 7.27218 35.2655 7.43241 35.1353C7.87991 34.7703 8.10367 34.2601 8.10367 33.6047C8.10367 33.1815 8.00008 32.8165 7.7929 32.5096C7.59401 32.1943 7.32468 31.9164 6.98491 31.6758C6.79644 31.5343 6.54904 31.3646 6.2427 31.1668ZM39.1495 20.7372V38.0846H38.9009L30.5972 28.9505L29.8265 27.9549L29.9508 30.3691V38.0846H26.8929V20.7372H27.1664L35.3457 29.9958L36.2158 31.1282L36.0915 28.7514V20.7372H39.1495ZM45.3681 38.0846C46.0559 38.2671 46.7851 38.3584 47.5558 38.3584C48.6497 38.3584 49.5986 38.1676 50.4025 37.7859C51.2063 37.396 51.8237 36.836 52.2546 36.106C52.6855 35.3759 52.901 34.5089 52.901 33.5051C52.901 32.5593 52.7104 31.7629 52.3292 31.1158C51.9563 30.4604 51.4922 29.9211 50.937 29.498C50.3817 29.0749 49.5779 28.5523 48.5254 27.93C47.9453 27.5816 47.4813 27.2788 47.1332 27.0216C46.7934 26.7644 46.5158 26.4741 46.3004 26.1505C46.0932 25.8186 45.9896 25.4412 45.9896 25.0181C45.9896 24.4622 46.1636 24.0018 46.5117 23.6367C46.868 23.2634 47.3652 23.0767 48.0033 23.0767C48.4426 23.0767 48.8611 23.1639 49.2588 23.3381C49.6566 23.504 49.9964 23.7073 50.2781 23.9478C50.5599 24.1801 50.7712 24.3958 50.9121 24.595L52.3043 22.0563C51.1193 20.9778 49.6442 20.4385 47.879 20.4385C46.7934 20.4385 45.8653 20.6377 45.0946 21.0359C44.3239 21.4341 43.7397 21.9899 43.3419 22.7034C42.9524 23.4086 42.7576 24.2216 42.7576 25.1425C42.7576 26.0883 42.9524 26.8972 43.3419 27.5691C43.7397 28.2328 44.2079 28.7721 44.7465 29.1869C45.2852 29.5934 46.031 30.0871 46.984 30.6678C47.6802 31.0909 48.194 31.4269 48.5254 31.6758C48.8652 31.9164 49.1345 32.1943 49.3334 32.5096C49.5406 32.8165 49.6442 33.1815 49.6442 33.6047C49.6442 34.2601 49.4204 34.7703 48.9729 35.1353C48.5337 35.492 47.9868 35.6704 47.3321 35.6704C46.8349 35.6704 46.3335 35.5709 45.828 35.3717C45.3308 35.1726 44.8874 34.932 44.4979 34.65C44.1084 34.3679 43.8184 34.1024 43.6278 33.8535L42.3599 36.4669C42.6582 36.7821 43.0643 37.0849 43.5781 37.3753C44.0919 37.6657 44.6885 37.9021 45.3681 38.0846ZM24.5618 20.4137H13.8715V24.147H24.5618V20.4137ZM13.8715 27.1336H21.3298V30.8669H13.8715V27.1336ZM13.8715 34.3513H24.5618V38.0846H13.8715V34.3513ZM66.577 34.3513H55.8867V38.0846H66.577V34.3513ZM32.6417 15.5604H30.6528V16.0581H32.6417V15.5604ZM37.1167 15.5604H35.3764V16.0581H37.1167V15.5604ZM36.6252 16.6803H35.3764V17.1781H36.6252V16.6803ZM35.3764 17.8003H37.1167V18.2981H35.3764V17.8003ZM31.3987 18.2981V16.307H31.8982V18.2981H31.3987ZM32.8904 15.5604V18.2981H33.3899V15.5604H32.8904ZM34.3817 18.2981V15.5604H34.8812V18.2981H34.3817ZM34.1354 16.5559H33.6359V17.0537H34.1354V16.5559ZM61.1098 31.8624C61.1098 31.9999 60.998 32.1113 60.8601 32.1113C60.7221 32.1113 60.6103 31.9999 60.6103 31.8624C60.6103 31.725 60.7221 31.6135 60.8601 31.6135C60.998 31.6135 61.1098 31.725 61.1098 31.8624ZM60.6115 33.8535C60.7495 33.8535 60.8613 33.7421 60.8613 33.6046C60.8613 33.4672 60.7495 33.3558 60.6115 33.3558C60.4736 33.3558 60.3618 33.4672 60.3618 33.6046C60.3618 33.7421 60.4736 33.8535 60.6115 33.8535ZM59.1211 38.8313C59.1211 38.9687 59.0093 39.0801 58.8713 39.0801C58.7334 39.0801 58.6216 38.9687 58.6216 38.8313C58.6216 38.6938 58.7334 38.5824 58.8713 38.5824C59.0093 38.5824 59.1211 38.6938 59.1211 38.8313ZM58.1254 40.8224C58.2634 40.8224 58.3752 40.7109 58.3752 40.5735C58.3752 40.436 58.2634 40.3246 58.1254 40.3246C57.9875 40.3246 57.8757 40.436 57.8757 40.5735C57.8757 40.7109 57.9875 40.8224 58.1254 40.8224ZM55.3908 45.5512C55.5288 45.5512 55.6406 45.4398 55.6406 45.3023C55.6406 45.1649 55.5288 45.0534 55.3908 45.0534C55.2529 45.0534 55.1411 45.1649 55.1411 45.3023C55.1411 45.4398 55.2529 45.5512 55.3908 45.5512ZM43.7059 54.76C43.8439 54.76 43.9557 54.6486 43.9557 54.5111C43.9557 54.3737 43.8439 54.2622 43.7059 54.2622C43.568 54.2622 43.4562 54.3737 43.4562 54.5111C43.4562 54.6486 43.568 54.76 43.7059 54.76ZM53.1545 48.289C53.1545 48.4264 53.0426 48.5378 52.9047 48.5378C52.7668 48.5378 52.6549 48.4264 52.6549 48.289C52.6549 48.1515 52.7668 48.0401 52.9047 48.0401C53.0426 48.0401 53.1545 48.1515 53.1545 48.289ZM57.6293 42.3157C57.6293 42.4531 57.5175 42.5646 57.3796 42.5646C57.2416 42.5646 57.1298 42.4531 57.1298 42.3157C57.1298 42.1782 57.2416 42.0668 57.3796 42.0668C57.5175 42.0668 57.6293 42.1782 57.6293 42.3157ZM51.6616 49.7823C51.7995 49.7823 51.9113 49.6709 51.9113 49.5334C51.9113 49.3959 51.7995 49.2845 51.6616 49.2845C51.5236 49.2845 51.4118 49.3959 51.4118 49.5334C51.4118 49.6709 51.5236 49.7823 51.6616 49.7823ZM50.4196 50.7778C50.4196 50.9153 50.3077 51.0267 50.1698 51.0267C50.0319 51.0267 49.92 50.9153 49.92 50.7778C49.92 50.6404 50.0319 50.5289 50.1698 50.5289C50.3077 50.5289 50.4196 50.6404 50.4196 50.7778ZM47.1864 53.0178C47.3243 53.0178 47.4361 52.9064 47.4361 52.7689C47.4361 52.6315 47.3243 52.52 47.1864 52.52C47.0484 52.52 46.9366 52.6315 46.9366 52.7689C46.9366 52.9064 47.0484 53.0178 47.1864 53.0178ZM39.7281 56.0044C39.866 56.0044 39.9779 55.893 39.9779 55.7556C39.9779 55.6181 39.866 55.5067 39.7281 55.5067C39.5902 55.5067 39.4783 55.6181 39.4783 55.7556C39.4783 55.893 39.5902 56.0044 39.7281 56.0044ZM37.9891 56.2533C37.9891 56.3908 37.8773 56.5022 37.7394 56.5022C37.6014 56.5022 37.4896 56.3908 37.4896 56.2533C37.4896 56.1159 37.6014 56.0045 37.7394 56.0045C37.8773 56.0045 37.9891 56.1159 37.9891 56.2533ZM35.7503 56.7511C35.8883 56.7511 36.0001 56.6397 36.0001 56.5022C36.0001 56.3648 35.8883 56.2533 35.7503 56.2533C35.6124 56.2533 35.5006 56.3648 35.5006 56.5022C35.5006 56.6397 35.6124 56.7511 35.7503 56.7511ZM34.0113 56.7511C34.0113 56.8886 33.8995 57 33.7615 57C33.6236 57 33.5118 56.8886 33.5118 56.7511C33.5118 56.6137 33.6236 56.5022 33.7615 56.5022C33.8995 56.5022 34.0113 56.6137 34.0113 56.7511ZM31.7725 57C31.9104 57 32.0222 56.8886 32.0222 56.7511C32.0222 56.6137 31.9104 56.5022 31.7725 56.5022C31.6345 56.5022 31.5227 56.6137 31.5227 56.7511C31.5227 56.8886 31.6345 57 31.7725 57ZM30.0335 56.5022C30.0335 56.6397 29.9217 56.7511 29.7837 56.7511C29.6458 56.7511 29.534 56.6397 29.534 56.5022C29.534 56.3648 29.6458 56.2533 29.7837 56.2533C29.9217 56.2533 30.0335 56.3648 30.0335 56.5022ZM27.7946 56.2533C27.9326 56.2533 28.0444 56.1419 28.0444 56.0045C28.0444 55.867 27.9326 55.7556 27.7946 55.7556C27.6567 55.7556 27.5449 55.867 27.5449 56.0045C27.5449 56.1419 27.6567 56.2533 27.7946 56.2533ZM25.8072 55.5067C25.8072 55.6441 25.6954 55.7556 25.5574 55.7556C25.4195 55.7556 25.3077 55.6441 25.3077 55.5067C25.3077 55.3692 25.4195 55.2578 25.5574 55.2578C25.6954 55.2578 25.8072 55.3692 25.8072 55.5067ZM23.5684 55.0089C23.7063 55.0089 23.8181 54.8975 23.8181 54.76C23.8181 54.6226 23.7063 54.5111 23.5684 54.5111C23.4304 54.5111 23.3186 54.6226 23.3186 54.76C23.3186 54.8975 23.4304 55.0089 23.5684 55.0089ZM22.0779 54.0134C22.0779 54.1508 21.9661 54.2622 21.8281 54.2622C21.6902 54.2622 21.5784 54.1508 21.5784 54.0134C21.5784 53.8759 21.6902 53.7645 21.8281 53.7645C21.9661 53.7645 22.0779 53.8759 22.0779 54.0134ZM20.0879 53.5156C20.2258 53.5156 20.3377 53.4042 20.3377 53.2667C20.3377 53.1292 20.2258 53.0178 20.0879 53.0178C19.95 53.0178 19.8381 53.1292 19.8381 53.2667C19.8381 53.4042 19.95 53.5156 20.0879 53.5156ZM41.967 55.2578C41.967 55.3952 41.8551 55.5067 41.7172 55.5067C41.5793 55.5067 41.4674 55.3952 41.4674 55.2578C41.4674 55.1203 41.5793 55.0089 41.7172 55.0089C41.8551 55.0089 41.967 55.1203 41.967 55.2578ZM56.3852 44.0579C56.5232 44.0579 56.635 43.9465 56.635 43.809C56.635 43.6715 56.5232 43.5601 56.3852 43.5601C56.2473 43.5601 56.1355 43.6715 56.1355 43.809C56.1355 43.9465 56.2473 44.0579 56.3852 44.0579ZM45.6959 53.7645C45.6959 53.9019 45.5841 54.0134 45.4462 54.0134C45.3082 54.0134 45.1964 53.9019 45.1964 53.7645C45.1964 53.627 45.3082 53.5156 45.4462 53.5156C45.5841 53.5156 45.6959 53.627 45.6959 53.7645ZM48.6781 52.0223C48.8161 52.0223 48.9279 51.9108 48.9279 51.7734C48.9279 51.6359 48.8161 51.5245 48.6781 51.5245C48.5402 51.5245 48.4284 51.6359 48.4284 51.7734C48.4284 51.9108 48.5402 52.0223 48.6781 52.0223ZM54.3974 46.7956C54.3974 46.9331 54.2856 47.0445 54.1477 47.0445C54.0097 47.0445 53.8979 46.9331 53.8979 46.7956C53.8979 46.6582 54.0097 46.5468 54.1477 46.5468C54.2856 46.5468 54.3974 46.6582 54.3974 46.7956Z" fill="black"/>
</svg>
