<svg width="60" height="60" viewBox="0 0 60 60" fill="none" xmlns="http://www.w3.org/2000/svg">
<path d="M1.14333 31.0052C1.69252 31.0052 2.13823 30.5581 2.13823 30.005C2.13823 14.5634 14.6351 2.00033 29.9953 2.00033C36.29 2.00033 42.3101 4.11569 47.209 8.00133H41.934C41.3849 8.00133 40.9392 8.44841 40.9392 9.0015C40.9392 9.55459 41.3849 10.0017 41.934 10.0017H49.8086C49.8743 10.0077 49.936 10.0087 50.0007 10.0017H50.8871V1.00017C50.8871 0.447075 50.4414 0 49.8922 0C49.343 0 48.8973 0.447075 48.8973 1.00017V6.81113C43.5687 2.4084 36.9407 0 29.9953 0C13.5377 0 0.148438 13.4602 0.148438 30.005C0.148438 30.5581 0.594151 31.0052 1.14333 31.0052Z" fill="white"/>
<path d="M29.9951 8.00122C17.926 8.00122 8.10742 17.8719 8.10742 30.0049C8.10742 42.1379 17.926 52.0086 29.9951 52.0086C42.0642 52.0086 51.8828 42.1379 51.8828 30.0049C51.8828 17.8719 42.0642 8.00122 29.9951 8.00122ZM29.9951 50.0082C19.0234 50.0082 10.0972 41.0347 10.0972 30.0049C10.0972 18.975 19.0234 10.0016 29.9951 10.0016C40.9668 10.0016 49.893 18.975 49.893 30.0049C49.893 41.0347 40.9668 50.0082 29.9951 50.0082Z" fill="white"/>
<path d="M29.9951 15.002C30.5441 15.002 30.9896 14.555 30.9896 14.002V12.002C30.9896 11.449 30.5441 11.002 29.9951 11.002C29.4461 11.002 29.0005 11.449 29.0005 12.002V14.002C29.0005 14.555 29.4461 15.002 29.9951 15.002Z" fill="white"/>
<path d="M29.9951 45.0076C29.4461 45.0076 29.0005 45.4546 29.0005 46.0076V48.0076C29.0005 48.5606 29.4461 49.0076 29.9951 49.0076C30.5441 49.0076 30.9896 48.5606 30.9896 48.0076V46.0076C30.9896 45.4546 30.5441 45.0076 29.9951 45.0076Z" fill="white"/>
<path d="M45.9134 31.0049H47.9031C48.4523 31.0049 48.898 30.5579 48.898 30.0049C48.898 29.4519 48.4523 29.0049 47.9031 29.0049H45.9134C45.3642 29.0049 44.9185 29.4519 44.9185 30.0049C44.9185 30.5579 45.3642 31.0049 45.9134 31.0049Z" fill="white"/>
<path d="M14.077 29.0049H12.0872C11.538 29.0049 11.0923 29.4519 11.0923 30.0049C11.0923 30.5579 11.538 31.0049 12.0872 31.0049H14.077C14.6262 31.0049 15.0719 30.5579 15.0719 30.0049C15.0719 29.4519 14.6262 29.0049 14.077 29.0049Z" fill="white"/>
<path d="M30.99 25.1462V20.0033C30.99 19.4502 30.5443 19.0032 29.9951 19.0032C29.446 19.0032 29.0003 19.4502 29.0003 20.0033V25.1462C27.289 25.5933 26.0156 27.1455 26.0156 29.0048C26.0156 29.745 26.2295 30.4291 26.5797 31.0242L18.3479 39.2996C17.9589 39.6906 17.9589 40.3227 18.3479 40.7138C18.5419 40.9088 18.7966 41.0068 19.0513 41.0068C19.306 41.0068 19.5607 40.9088 19.7547 40.7138L27.9865 32.4384C28.5784 32.7905 29.2589 33.0055 29.9951 33.0055C32.1899 33.0055 33.9747 31.2112 33.9747 29.0048C33.9747 27.1455 32.7013 25.5933 30.99 25.1462ZM29.9951 31.0052C28.8978 31.0052 28.0054 30.108 28.0054 29.0048C28.0054 27.9017 28.8978 27.0045 29.9951 27.0045C31.0925 27.0045 31.9849 27.9017 31.9849 29.0048C31.9849 30.108 31.0925 31.0052 29.9951 31.0052Z" fill="white"/>
<path d="M11.9765 52.6688C11.6483 53.1078 11.7378 53.7378 12.1853 54.0678C12.3544 54.1978 12.5633 54.2578 12.7721 54.2578C13.0805 54.2578 13.3788 54.1278 13.5777 53.8578C13.896 53.4188 13.8065 52.7888 13.3689 52.4588C12.9313 52.1288 12.3057 52.2188 11.9765 52.6688Z" fill="white"/>
<path d="M7.34076 46.2776C7.02249 45.8386 6.39591 45.7276 5.94835 46.0486C5.50079 46.3786 5.40134 46.9986 5.7196 47.4476C5.91852 47.7186 6.21689 47.8676 6.53515 47.8676C6.73407 47.8676 6.93298 47.8076 7.112 47.6786C7.55857 47.3576 7.65902 46.7276 7.34076 46.2776Z" fill="white"/>
<path d="M7.72841 48.458C7.32064 48.827 7.28085 49.458 7.64885 49.867C7.83781 50.097 8.11629 50.208 8.39477 50.208C8.62353 50.208 8.86223 50.128 9.05119 49.958C9.45897 49.588 9.49875 48.958 9.13076 48.548C8.77371 48.128 8.14713 48.098 7.72841 48.458Z" fill="white"/>
<path d="M11.1515 50.6083C10.7537 50.2383 10.1172 50.2683 9.74916 50.6693C9.37122 51.0783 9.40106 51.7093 9.80883 52.0893C9.9978 52.2593 10.2365 52.3493 10.4752 52.3493C10.7437 52.3493 11.0123 52.2393 11.2112 52.0293C11.5792 51.6193 11.5593 50.9893 11.1515 50.6193C11.1515 50.6083 11.1515 50.6083 11.1515 50.6083Z" fill="white"/>
<path d="M5.78888 43.8473C5.77893 43.8473 5.77893 43.8473 5.77893 43.8473C5.51039 43.3673 4.9037 43.1973 4.42631 43.4773C3.94891 43.7483 3.77984 44.3573 4.05832 44.8373C4.23734 45.1563 4.57549 45.3373 4.9236 45.3373C5.08273 45.3373 5.26175 45.2973 5.41094 45.2073C5.88833 44.9373 6.05741 44.3263 5.78888 43.8473Z" fill="white"/>
<path d="M58.787 32.1252C58.8069 32.1252 58.8168 32.1252 58.8268 32.1252C59.3639 32.1252 59.8015 31.6942 59.8214 31.1652C59.8413 30.6042 59.4136 30.1442 58.8666 30.1252C58.3196 30.1042 57.8521 30.5352 57.8322 31.0852C57.8123 31.6352 58.239 32.1052 58.787 32.1252Z" fill="white"/>
<path d="M1.40171 33.9955C1.94873 33.9345 2.34656 33.4445 2.28689 32.8945C2.22721 32.3445 1.73987 31.9445 1.19285 32.0045C0.645839 32.0545 0.24801 32.5545 0.307684 33.0945C0.357413 33.6145 0.795025 33.9945 1.29231 33.9945C1.33209 33.9955 1.36193 33.9955 1.40171 33.9955Z" fill="white"/>
<path d="M1.95879 36.936C2.49585 36.826 2.84396 36.296 2.72461 35.756C2.6152 35.216 2.08808 34.865 1.55101 34.985C1.01394 35.095 0.665839 35.626 0.785188 36.166C0.8747 36.636 1.29242 36.956 1.74992 36.956C1.81855 36.956 1.88916 36.956 1.95879 36.936Z" fill="white"/>
<path d="M4.48467 41.2568C4.26586 40.7568 3.67906 40.5268 3.17183 40.7468C2.67455 40.9668 2.44579 41.5568 2.6646 42.0658C2.83368 42.4358 3.19172 42.6668 3.57961 42.6668C3.7089 42.6668 3.84814 42.6368 3.97744 42.5758C4.47373 42.3568 4.70248 41.7668 4.48467 41.2568Z" fill="white"/>
<path d="M3.45952 38.5563C3.30039 38.0263 2.73348 37.7363 2.2163 37.9063C1.68918 38.0763 1.40075 38.6363 1.56983 39.1673C1.70907 39.5873 2.09695 39.8563 2.51467 39.8563C2.61413 39.8563 2.72353 39.8463 2.82299 39.8163C3.34116 39.6463 3.62959 39.0753 3.45952 38.5563Z" fill="white"/>
<path d="M29.458 57.9997C28.911 57.9887 28.4535 58.4297 28.4435 58.9787C28.4336 59.5397 28.8712 59.9887 29.4182 59.9997C29.4282 59.9997 29.4381 59.9997 29.4381 59.9997C29.9851 59.9997 30.4227 59.5687 30.4327 59.0197C30.4416 58.4697 30.005 58.0097 29.458 57.9997Z" fill="white"/>
<path d="M52.0119 47.1477C51.6738 47.5777 51.7533 48.2087 52.181 48.5477C52.37 48.6877 52.5788 48.7577 52.7976 48.7577C53.0861 48.7577 53.3844 48.6277 53.5834 48.3667C53.9215 47.9367 53.8419 47.3067 53.4043 46.9677C52.9667 46.6287 52.3501 46.7077 52.0119 47.1477Z" fill="white"/>
<path d="M45.7433 53.0889C45.2958 53.3989 45.1764 54.0279 45.4947 54.4789C45.6837 54.7589 45.992 54.9089 46.3102 54.9089C46.5091 54.9089 46.6981 54.8589 46.8771 54.7389C47.3247 54.4289 47.444 53.7999 47.1258 53.3489C46.8175 52.8889 46.2018 52.7789 45.7433 53.0889Z" fill="white"/>
<path d="M48.0327 51.3276C47.615 51.6876 47.5653 52.3176 47.9233 52.7376C48.1223 52.9676 48.4007 53.0886 48.6792 53.0886C48.908 53.0886 49.1367 53.0086 49.3257 52.8486C49.7434 52.4886 49.7931 51.8586 49.4351 51.4386C49.0761 51.0186 48.4505 50.9686 48.0327 51.3276Z" fill="white"/>
<path d="M55.0254 44.4462C54.5579 44.1562 53.9413 44.3062 53.6529 44.7662C53.3645 45.2362 53.5037 45.8562 53.9711 46.1462C54.1402 46.2472 54.3192 46.2962 54.4983 46.2962C54.8265 46.2962 55.1547 46.1362 55.3437 45.8252C55.6331 45.3572 55.4938 44.7362 55.0254 44.4462Z" fill="white"/>
<path d="M50.1321 49.338C49.7442 49.737 49.7641 50.367 50.1619 50.748C50.3509 50.937 50.5995 51.027 50.8482 51.027C51.1068 51.027 51.3753 50.927 51.5643 50.717C51.9422 50.317 51.9322 49.687 51.5344 49.307C51.1366 48.927 50.509 48.938 50.1321 49.338Z" fill="white"/>
<path d="M58.6965 33.1147C58.1594 33.0357 57.6522 33.4257 57.5726 33.9657C57.493 34.5157 57.871 35.0157 58.418 35.0957C58.4677 35.1057 58.5174 35.1057 58.5572 35.1057C59.0446 35.1057 59.4722 34.7467 59.5418 34.2467C59.6224 33.7057 59.2445 33.1947 58.6965 33.1147Z" fill="white"/>
<path d="M58.2298 36.0752C57.6928 35.9452 57.1557 36.2752 57.0165 36.8052C56.8872 37.3452 57.2154 37.8852 57.7425 38.0252C57.8221 38.0462 57.9016 38.0552 57.9812 38.0552C58.4288 38.0552 58.8365 37.7452 58.9459 37.2952C59.0852 36.7562 58.756 36.2162 58.2298 36.0752Z" fill="white"/>
<path d="M15.7668 54.0691C15.2894 53.7901 14.6827 53.9391 14.4042 54.4201C14.1158 54.8901 14.2749 55.5101 14.7424 55.7901C14.9015 55.8901 15.0805 55.9301 15.2496 55.9301C15.5878 55.9301 15.916 55.7601 16.1049 55.4401C16.3934 54.9691 16.2352 54.3591 15.7668 54.0691Z" fill="white"/>
<path d="M57.453 38.9767C56.9358 38.7877 56.3589 39.0567 56.1799 39.5767C55.9909 40.0977 56.2495 40.6677 56.7667 40.8567C56.8761 40.8967 56.9955 40.9177 57.1049 40.9177C57.5126 40.9177 57.9005 40.6677 58.0398 40.2577C58.2297 39.7357 57.9701 39.1667 57.453 38.9767Z" fill="white"/>
<path d="M56.3794 41.7768C55.8921 41.5378 55.2854 41.7368 55.0467 42.2368C54.808 42.7368 55.0169 43.3378 55.5042 43.5768C55.6435 43.6468 55.7926 43.6778 55.9418 43.6778C56.3098 43.6778 56.6679 43.4678 56.8369 43.1168C57.0756 42.6158 56.8767 42.0168 56.3794 41.7768Z" fill="white"/>
<path d="M26.5823 57.7994C26.0353 57.7294 25.5479 58.1184 25.4783 58.6694C25.4087 59.2194 25.7966 59.7194 26.3436 59.7784V59.7894C26.3834 59.7894 26.4231 59.7894 26.4629 59.7894C26.9602 59.7894 27.3879 59.4194 27.4476 58.9084C27.5172 58.3594 27.1283 57.8684 26.5823 57.7994Z" fill="white"/>
<path d="M20.981 56.5096C20.4638 56.3286 19.8969 56.5996 19.7179 57.1296C19.5389 57.6496 19.8173 58.2196 20.3345 58.3996C20.4439 58.4296 20.5533 58.4496 20.6627 58.4496C21.0705 58.4496 21.4584 58.1896 21.5976 57.7796C21.7766 57.2496 21.4982 56.6796 20.981 56.5096Z" fill="white"/>
<path d="M23.7468 57.2995C23.2097 57.1795 22.6826 57.5095 22.5533 58.0495C22.4339 58.5895 22.7721 59.1295 23.2992 59.2495C23.3788 59.2695 23.4484 59.2695 23.528 59.2695C23.9755 59.2695 24.3932 58.9595 24.4927 58.4995C24.621 57.9595 24.2838 57.4195 23.7468 57.2995Z" fill="white"/>
<path d="M18.3147 55.4294C17.8075 55.1894 17.2207 55.4084 16.992 55.9084C16.7632 56.4084 16.9721 57.0094 17.4694 57.2384C17.6086 57.2994 17.7478 57.3284 17.8871 57.3284C18.265 57.3284 18.6231 57.1184 18.7921 56.7494C19.0209 56.2494 18.812 55.6584 18.3147 55.4294Z" fill="white"/>
<path d="M35.1882 57.5195C34.6512 57.6195 34.2931 58.1495 34.3926 58.6895C34.4821 59.1695 34.9097 59.5005 35.3772 59.5005C35.4369 59.5005 35.4965 59.5005 35.5562 59.4895C36.0933 59.3805 36.4513 58.8595 36.3519 58.3195C36.2524 57.7695 35.7253 57.4195 35.1882 57.5195Z" fill="white"/>
<path d="M37.9841 56.8395C37.4569 56.9885 37.1586 57.5495 37.3177 58.0785C37.447 58.5095 37.8448 58.7895 38.2725 58.7895C38.362 58.7895 38.4615 58.7785 38.5609 58.7495C39.088 58.5895 39.3864 58.0285 39.2273 57.4995C39.0672 56.9795 38.5112 56.6795 37.9841 56.8395Z" fill="white"/>
<path d="M40.7 55.8592C40.1928 56.0692 39.9541 56.6592 40.163 57.1702C40.3221 57.5502 40.6901 57.7792 41.078 57.7792C41.2073 57.7792 41.3366 57.7592 41.4658 57.7102C41.9731 57.4892 42.2118 56.9092 42.0029 56.3992C41.7831 55.8892 41.2073 55.6492 40.7 55.8592Z" fill="white"/>
<path d="M32.332 57.9087C31.785 57.9597 31.3772 58.4387 31.427 58.9887C31.4667 59.5097 31.9044 59.9087 32.4215 59.9087C32.4414 59.9087 32.4713 59.9087 32.5011 59.9087V59.8987C33.0481 59.8587 33.4559 59.3787 33.4062 58.8287C33.3664 58.2797 32.88 57.8687 32.332 57.9087Z" fill="white"/>
<path d="M43.2957 54.609C42.8083 54.869 42.6293 55.479 42.8978 55.96C43.0769 56.3 43.415 56.489 43.7731 56.489C43.9322 56.489 44.0913 56.449 44.2405 56.359C44.7279 56.099 44.9069 55.489 44.6383 55.009C44.3807 54.519 43.7731 54.339 43.2957 54.609Z" fill="white"/>
</svg>
